<svg width="226" height="85" viewBox="0 0 226 85" fill="none" xmlns="http://www.w3.org/2000/svg">
<path fill-rule="evenodd" clip-rule="evenodd" d="M14.5144 64.6762C24.1492 63.5083 28.8206 66.136 28.8206 66.136C17.7259 64.3842 19.4777 69.9315 13.9304 69.9315C11.0107 69.9315 8.09108 67.5958 0.5 71.6833C1.08393 70.8074 4.29559 66.4279 14.5144 64.6762Z" fill="url(#paint0_linear_1449_13089)"/>
<path fill-rule="evenodd" clip-rule="evenodd" d="M35.2439 71.6836C61.8127 71.6836 72.0314 79.2747 72.0314 79.2747C58.893 75.1872 51.5939 80.1506 41.6671 82.1943C34.368 83.6541 28.8207 79.2747 23.5654 78.1068C17.7261 76.647 11.3028 78.9827 6.92334 80.1505C12.4707 76.063 22.1055 72.2675 35.2439 71.6836Z" fill="url(#paint1_linear_1449_13089)"/>
<path d="M81.3732 59.7133C77.8696 54.4579 72.6143 44.2391 73.1982 34.6043C74.658 12.9989 85.4608 4.82393 85.4608 0.444461C85.4608 -1.30733 75.5339 2.4882 69.6946 5.40785C51.5928 15.0427 38.7463 34.6043 38.7463 53.874C38.7463 53.874 39.3302 71.0999 42.8338 67.8883C52.1767 58.5454 61.8115 62.9249 73.4901 66.1365C74.658 66.4285 84.2929 69.932 86.3366 67.8883C87.7964 66.4285 84.8768 64.6767 81.3732 59.7133Z" fill="url(#paint2_linear_1449_13089)"/>
<path d="M35.8274 54.4566C32.3238 45.4057 32.6158 36.3548 36.4114 27.3039C36.7033 26.1361 40.7908 19.4209 38.747 19.1289C35.2435 18.837 27.0685 24.0923 27.0685 24.0923C20.3533 27.8878 2.54346 50.6611 11.5944 61.7557C12.7622 62.9236 13.3461 60.004 17.1417 58.5441C23.2729 56.2084 33.1997 63.7995 35.8274 62.0477C35.8274 62.3397 38.1631 60.8799 35.8274 54.4566Z" fill="url(#paint3_linear_1449_13089)"/>
<path d="M134.581 26.1127C136.981 26.9126 137.981 27.7125 137.981 28.9123C136.581 30.9121 135.981 32.3119 135.981 33.1118C135.781 35.1115 135.181 37.1112 134.581 39.1109C134.381 39.7108 133.981 40.5107 133.981 41.5106C133.781 42.7104 133.781 44.3102 133.981 46.3099C133.781 46.7099 133.981 46.7099 134.381 46.3099C137.381 42.9104 140.58 38.111 144.38 31.7119C144.58 31.312 144.58 31.312 144.58 31.7119C144.38 32.3119 143.78 33.3117 143.18 34.7115C141.98 37.1112 141.18 38.9109 140.78 40.1108C139.98 42.1105 138.981 44.1102 137.981 45.91C136.581 48.1097 135.781 50.1094 135.181 51.7092C134.381 52.3091 133.381 52.3091 132.382 51.7092C131.582 51.3092 130.982 50.9093 130.382 50.9093C129.782 49.9094 129.782 48.9095 130.382 47.7097C130.382 45.31 130.582 42.9104 130.782 40.5107C130.982 38.311 131.382 36.3113 131.782 34.3116C131.782 34.1116 131.782 33.9116 131.582 33.9116L131.182 34.1116C126.782 36.9112 123.983 36.9112 122.783 33.9116C122.583 33.5117 122.383 33.1118 122.583 32.9118C122.783 32.7118 122.983 32.7118 123.383 32.7118C124.583 33.1117 126.582 32.3119 129.382 30.1122C131.782 28.5124 133.381 27.1126 134.581 26.1127ZM132.581 15.5142C132.781 15.7142 133.181 16.1141 133.581 16.1141C133.781 16.1141 133.781 16.1141 133.981 16.1141C136.381 17.314 137.781 19.1137 138.381 21.3134C137.981 22.3133 137.181 22.7132 135.981 22.5132C134.781 22.5132 134.181 22.7132 133.781 23.1131C133.381 23.5131 132.781 23.913 131.982 24.313L131.582 24.5129C130.982 24.7129 130.982 24.7129 131.382 24.113C133.381 22.5132 133.781 21.1134 132.781 19.5136C132.381 18.9137 132.182 18.5138 132.581 17.9139C132.381 17.3139 132.181 16.714 131.782 16.1141C131.582 15.9141 131.582 15.5142 131.782 15.1143C131.782 15.1143 131.982 15.1143 132.581 15.5142ZM151.579 8.11523C153.978 9.51504 154.978 11.1148 154.378 13.3145C154.378 13.9144 154.378 14.7143 154.378 15.7142C154.578 15.5142 154.978 15.3142 155.378 15.1143C156.778 15.1143 157.778 15.1143 158.578 15.3142C159.178 15.5142 159.378 16.1141 159.178 16.714C158.978 17.314 158.578 17.5139 158.178 17.5139C156.578 17.7139 155.378 18.1138 154.578 18.1138C154.378 18.3138 153.978 19.7136 153.778 21.7133C155.578 21.3134 157.178 20.9134 158.978 20.9134C159.178 20.7135 159.378 20.5135 159.578 20.7135C159.778 21.1134 160.178 21.5134 161.177 21.5134C161.977 23.5131 161.377 24.9129 159.578 25.7128C157.978 25.5128 155.978 26.1127 153.778 27.9125C153.379 28.3124 153.179 28.3124 153.579 27.9125C155.378 26.1127 156.778 24.7129 157.578 23.913C158.378 23.1131 158.378 22.7132 157.978 22.9132C155.978 23.5131 153.779 24.313 151.379 25.3128C147.379 27.5125 144.78 28.3124 143.98 27.9125C143.78 27.7125 143.18 27.3126 142.58 27.1126C142.18 26.9126 142.18 26.7126 142.18 26.5127C142.18 26.3127 142.38 26.3127 142.78 26.1127C145.18 25.3128 147.579 24.5129 149.979 23.3131C149.779 21.9133 149.979 20.5135 150.179 18.9137C149.179 19.1137 148.179 19.5136 147.179 19.5136C146.38 19.5136 145.58 19.5136 145.18 19.3137C144.78 19.3137 144.58 19.1137 144.98 18.9137C146.779 18.3138 148.779 17.7139 150.579 16.714C150.779 14.9143 150.779 13.5145 150.779 12.3146C150.779 11.1148 150.779 10.3149 150.779 9.51503C150.979 8.51517 151.179 8.11523 151.579 8.11523ZM154.778 28.5124C154.978 28.7124 155.378 28.9123 155.778 29.1123C156.378 30.5121 156.378 31.9119 155.778 33.5117C155.578 34.1116 155.378 35.1115 155.378 36.3113C156.178 35.9114 156.978 35.3114 157.378 34.7115C157.578 34.3116 157.978 34.3116 158.378 34.7115C158.578 34.9115 158.778 35.1115 159.178 35.5114C159.378 35.7114 159.778 35.9114 159.978 35.9114C160.578 36.9112 160.378 37.5111 159.578 37.5111C158.778 37.3112 157.978 37.7111 156.978 38.311C156.178 39.1109 155.378 39.5109 154.578 39.9108C154.178 40.1108 153.978 40.3107 153.978 40.7107C151.979 47.5097 148.779 51.9091 144.38 53.7089C144.18 53.7089 143.98 53.7089 143.98 53.5089C143.78 53.3089 143.98 53.3089 144.18 53.109C146.979 51.3092 149.179 47.7097 151.179 42.7104C150.979 42.3105 150.979 42.1105 150.779 42.3105C146.779 44.9101 144.38 45.1101 143.78 42.9104C142.98 42.7104 142.98 42.1105 143.58 41.3106C144.98 39.5109 145.98 37.9111 146.579 36.7112C146.579 36.3113 146.979 35.7114 147.779 35.1115C147.779 34.9115 147.579 34.5116 147.379 34.3116C146.979 34.1116 146.979 33.9116 147.379 33.5117C147.579 33.3117 147.979 33.1118 148.379 33.3117C148.979 34.1116 149.379 34.3116 149.779 34.3116C150.179 34.5116 150.579 34.7115 150.579 35.1115C150.579 35.7114 150.379 36.1113 149.979 36.1113C149.579 36.3113 149.179 36.1113 148.579 35.9114C148.179 35.9114 147.779 36.1113 147.379 36.5113C145.78 37.9111 144.78 39.5109 144.38 41.3106C144.38 41.5106 144.58 41.5106 144.78 41.5106C146.379 41.3106 148.979 39.9108 152.779 37.3112C152.979 35.9114 153.179 34.9115 153.179 34.1116C153.978 31.112 154.378 29.1123 154.778 28.5124ZM149.379 29.9122C149.379 30.1122 149.779 30.3121 150.779 30.3121C151.579 30.5121 151.979 30.7121 152.179 30.7121C152.379 31.312 152.379 31.712 152.179 32.1119C151.379 33.1118 150.779 33.3117 150.379 32.5118C149.979 32.1119 149.379 32.1119 148.779 32.7118C148.379 32.9118 148.379 32.9118 148.779 32.5118C149.579 31.7119 149.579 31.312 149.179 31.312C148.579 30.7121 148.579 30.3121 149.379 29.9122ZM154.978 46.3099C155.178 46.5099 155.778 46.9098 156.578 47.1098C156.778 47.3098 157.178 47.3098 157.178 47.3098C158.578 48.1097 159.978 49.5095 161.577 51.9091C161.377 53.3089 160.378 53.7089 158.378 52.909C157.778 52.3091 157.178 51.5092 156.378 50.3094C156.178 49.5095 155.578 48.7096 154.578 47.5097C154.378 47.3098 154.378 47.1098 154.378 46.9098C154.178 46.5099 153.978 46.3099 154.178 46.3099C154.378 46.3099 154.578 46.3099 154.978 46.3099Z" fill="#C7000B"/>
<path d="M182.575 20.1132C183.775 19.9132 185.175 19.3133 186.974 18.9134C187.374 18.5134 187.774 18.3135 188.374 18.5134C188.574 18.5134 188.974 18.5134 189.774 18.5134C190.174 18.7134 190.374 19.1133 189.974 19.5133C187.974 21.1131 186.174 22.7128 184.575 24.5126C184.575 24.7126 184.575 25.1125 184.575 25.9124C184.775 27.3122 184.975 28.1121 184.975 28.512C190.374 27.7121 194.973 28.1121 198.573 29.9118C199.373 30.7117 199.373 31.5116 198.373 31.9116C196.373 32.5115 195.173 32.5115 194.773 31.7116C191.374 30.7117 188.174 30.1118 184.975 29.7119C184.775 31.3116 184.575 32.9114 184.575 34.5112C183.775 35.711 182.775 36.3109 181.375 36.3109C179.175 36.5109 177.576 35.5111 176.576 33.7113C175.776 33.1114 175.976 32.9114 176.776 33.3114C178.575 33.5113 179.975 33.5113 180.975 32.9114C181.175 32.7115 181.375 31.5116 181.375 29.5119C181.375 29.3119 181.375 29.3119 181.375 29.112L181.175 28.912C180.975 28.912 180.975 28.912 180.775 29.112C177.776 31.5116 175.376 32.9114 173.376 33.9113C170.377 35.1111 167.577 36.9109 165.177 38.9106C164.777 39.1106 164.577 39.3105 164.577 39.1106C164.377 38.9106 164.577 38.7106 164.777 38.3107C169.577 33.9113 174.976 29.3119 181.375 24.3126C181.175 24.3126 181.175 23.9127 181.175 23.3128C176.176 25.1125 173.376 26.3123 172.576 26.7123C171.377 27.3122 170.377 27.3122 169.377 26.5123C168.777 26.1124 168.777 25.7124 169.577 25.1125C171.776 23.9127 175.376 22.5129 180.375 21.513C179.575 20.7131 178.776 19.9132 177.976 19.1133C177.576 19.1133 177.376 18.9134 177.576 18.7134C177.576 18.5134 177.776 18.1135 178.376 18.1135C179.375 17.1136 180.975 18.1135 182.575 20.1132ZM179.775 40.9103C180.775 41.7102 180.575 42.7101 179.375 44.1099C177.976 45.7096 176.376 48.5093 174.176 52.5087C172.776 54.9084 171.177 55.7083 169.177 54.9084C168.777 54.7084 168.577 54.7084 168.577 54.5084C168.577 54.3084 168.777 54.1085 169.177 54.1085C171.576 52.1088 174.576 47.9093 178.176 41.5102C178.176 40.7103 178.775 40.5104 179.775 40.9103ZM185.575 7.31499C186.974 7.51496 187.774 8.11488 187.974 9.11474C188.174 10.1146 187.574 11.1145 186.574 12.1143C185.974 12.9142 185.175 12.9142 183.975 12.5143C182.775 12.1143 178.975 13.7141 172.176 17.7135C170.977 18.5134 170.977 18.3135 171.976 17.3136C179.775 9.91463 184.175 6.71507 185.575 7.31499ZM177.176 38.9106C182.775 37.3108 186.374 36.5109 188.574 36.3109C190.174 36.3109 190.774 36.9109 190.574 37.9107C190.374 38.1107 190.174 38.7106 189.774 39.3105L189.374 39.9105C188.574 40.7103 187.774 41.7102 186.774 43.11C186.574 43.31 186.374 43.7099 186.374 43.7099C186.175 43.9099 186.174 44.3098 186.174 44.3098C186.174 44.5098 186.374 44.5098 186.774 44.3098C188.174 44.5098 188.974 45.1097 189.574 46.1096C190.374 49.9091 188.774 53.1086 185.175 55.9082C183.775 56.9081 182.775 56.9081 182.375 56.1082C181.575 55.3083 180.775 54.1085 179.775 52.1088V51.9088C179.575 51.7088 179.375 51.3089 179.575 51.3089C179.775 51.3089 180.175 51.5088 180.575 51.7088C182.375 52.5087 183.575 52.5087 184.575 52.1088C185.575 51.3089 186.174 49.5091 186.174 47.1095C186.174 46.9095 186.174 46.5095 185.975 46.5095C185.775 46.5095 185.575 46.5095 185.375 46.5095C183.975 46.7095 183.375 46.1096 183.375 44.9098C182.775 44.5098 182.775 43.9099 183.375 43.31C183.575 42.7101 184.575 41.1103 186.374 38.3107C186.574 38.1107 186.574 37.7107 186.374 37.7107H185.774C177.776 41.3102 173.376 42.3101 172.776 40.5104C172.576 40.3104 172.576 40.3104 172.976 40.1104C173.976 39.9105 175.576 39.5105 177.176 38.9106Z" fill="#C7000B"/>
<path d="M98.348 79L95.932 70.312H97.42L98.716 75.336C98.892 76.168 99.068 76.952 99.228 77.768H99.308C99.5 76.952 99.676 76.152 99.9 75.336L101.244 70.312H102.668L104.028 75.336C104.236 76.168 104.428 76.952 104.636 77.768H104.7C104.892 76.952 105.052 76.168 105.244 75.336L106.524 70.312H107.9L105.564 79H103.804L102.54 74.312C102.316 73.496 102.156 72.696 101.948 71.816H101.868C101.676 72.696 101.5 73.512 101.276 74.344L100.06 79H98.348ZM111.976 79L109.56 70.312H111.048L112.344 75.336C112.52 76.168 112.696 76.952 112.856 77.768H112.936C113.128 76.952 113.304 76.152 113.528 75.336L114.872 70.312H116.296L117.656 75.336C117.864 76.168 118.056 76.952 118.264 77.768H118.328C118.52 76.952 118.68 76.168 118.872 75.336L120.152 70.312H121.528L119.192 79H117.432L116.168 74.312C115.944 73.496 115.784 72.696 115.576 71.816H115.496C115.304 72.696 115.128 73.512 114.904 74.344L113.688 79H111.976ZM125.604 79L123.188 70.312H124.676L125.972 75.336C126.148 76.168 126.324 76.952 126.484 77.768H126.564C126.756 76.952 126.932 76.152 127.156 75.336L128.5 70.312H129.924L131.284 75.336C131.492 76.168 131.684 76.952 131.892 77.768H131.956C132.148 76.952 132.308 76.168 132.5 75.336L133.78 70.312H135.156L132.82 79H131.06L129.796 74.312C129.572 73.496 129.412 72.696 129.204 71.816H129.124C128.932 72.696 128.756 73.512 128.532 74.344L127.316 79H125.604ZM137.89 79.208C137.314 79.208 136.834 78.76 136.834 78.104C136.834 77.448 137.314 76.968 137.89 76.968C138.466 76.968 138.946 77.448 138.946 78.104C138.946 78.76 138.466 79.208 137.89 79.208ZM145.148 79.208C142.972 79.208 141.564 77.56 141.564 74.664C141.564 71.848 143.34 70.088 145.324 70.088C146.348 70.088 147.004 70.472 147.772 71.112L147.692 69.608V66.264H149.148V79H147.964L147.82 77.976H147.788C147.1 78.648 146.188 79.208 145.148 79.208ZM145.468 77.992C146.268 77.992 146.972 77.592 147.692 76.792V72.232C146.956 71.576 146.3 71.32 145.58 71.32C144.172 71.32 143.068 72.664 143.068 74.648C143.068 76.744 143.932 77.992 145.468 77.992ZM155.438 79.208C153.614 79.208 152.798 78.024 152.798 75.816V70.312H154.254V75.64C154.254 77.256 154.734 77.944 155.886 77.944C156.782 77.944 157.406 77.512 158.238 76.472V70.312H159.694V79H158.478L158.366 77.64H158.318C157.502 78.584 156.638 79.208 155.438 79.208ZM162.196 79L165.06 74.472L162.42 70.312H163.988L165.156 72.232C165.428 72.712 165.732 73.192 166.02 73.672H166.084C166.356 73.192 166.612 72.712 166.868 72.232L167.94 70.312H169.46L166.82 74.616L169.684 79H168.084L166.804 76.968C166.516 76.44 166.196 75.912 165.876 75.416H165.796C165.492 75.912 165.204 76.44 164.9 76.968L163.732 79H162.196ZM172.197 79V70.312H173.653V79H172.197ZM172.933 68.52C172.357 68.52 171.925 68.12 171.925 67.576C171.925 66.984 172.357 66.632 172.933 66.632C173.509 66.632 173.941 66.984 173.941 67.576C173.941 68.12 173.509 68.52 172.933 68.52ZM179.931 79.208C178.107 79.208 177.291 78.024 177.291 75.816V70.312H178.747V75.64C178.747 77.256 179.227 77.944 180.379 77.944C181.275 77.944 181.899 77.512 182.731 76.472V70.312H184.187V79H182.971L182.859 77.64H182.811C181.995 78.584 181.131 79.208 179.931 79.208ZM188.674 79.208C188.098 79.208 187.618 78.76 187.618 78.104C187.618 77.448 188.098 76.968 188.674 76.968C189.25 76.968 189.73 77.448 189.73 78.104C189.73 78.76 189.25 79.208 188.674 79.208ZM196.396 79.208C194.092 79.208 192.316 77.544 192.316 74.664C192.316 71.768 194.284 70.088 196.508 70.088C197.644 70.088 198.428 70.568 199.052 71.112L198.3 72.088C197.788 71.624 197.26 71.304 196.556 71.304C194.988 71.304 193.836 72.664 193.836 74.664C193.836 76.664 194.924 77.992 196.524 77.992C197.324 77.992 198.028 77.624 198.572 77.128L199.196 78.104C198.428 78.808 197.436 79.208 196.396 79.208ZM204.898 79.208C202.77 79.208 200.866 77.544 200.866 74.664C200.866 71.768 202.77 70.088 204.898 70.088C207.026 70.088 208.93 71.768 208.93 74.664C208.93 77.544 207.026 79.208 204.898 79.208ZM204.898 77.992C206.402 77.992 207.426 76.664 207.426 74.664C207.426 72.664 206.402 71.304 204.898 71.304C203.394 71.304 202.386 72.664 202.386 74.664C202.386 76.664 203.394 77.992 204.898 77.992ZM212.025 79V70.312H213.225L213.353 71.576H213.401C214.153 70.744 215.065 70.088 216.105 70.088C217.433 70.088 218.153 70.728 218.505 71.752C219.401 70.776 220.313 70.088 221.369 70.088C223.161 70.088 224.009 71.272 224.009 73.496V79H222.553V73.688C222.553 72.056 222.041 71.368 220.937 71.368C220.265 71.368 219.561 71.8 218.745 72.696V79H217.289V73.688C217.289 72.056 216.777 71.368 215.673 71.368C215.017 71.368 214.281 71.8 213.481 72.696V79H212.025Z" fill="#909399"/>
<defs>
<linearGradient id="paint0_linear_1449_13089" x1="13.9464" y1="64.676" x2="14.758" y2="68.6552" gradientUnits="userSpaceOnUse">
<stop stop-color="#FFE200"/>
<stop offset="1" stop-color="#FDD000"/>
</linearGradient>
<linearGradient id="paint1_linear_1449_13089" x1="39.1186" y1="69.6599" x2="39.5367" y2="79.0119" gradientUnits="userSpaceOnUse">
<stop stop-color="#6F94CD"/>
<stop offset="1" stop-color="#0065B2"/>
</linearGradient>
<linearGradient id="paint2_linear_1449_13089" x1="63.1109" y1="-0.255405" x2="62.9115" y2="68.5192" gradientUnits="userSpaceOnUse">
<stop stop-color="#6F94CD"/>
<stop offset="1" stop-color="#0065B2"/>
</linearGradient>
<linearGradient id="paint3_linear_1449_13089" x1="24.2981" y1="19.3759" x2="24.1724" y2="62.7122" gradientUnits="userSpaceOnUse">
<stop stop-color="#FFE200"/>
<stop offset="1" stop-color="#FDD000"/>
</linearGradient>
</defs>
</svg>
